<svg xmlns="http://www.w3.org/2000/svg" width="140" height="38" fill="none"><g clip-path="url(#a)"><path fill="#9c9c9c" d="M11.394 22.393V27.4c0 2.505-1.12 3.408-2.9 3.408s-2.899-.903-2.899-3.408V8.466c0-2.505 1.12-3.457 2.9-3.457s2.899.952 2.899 3.457v3.757h5.29V8.816C16.684 3.206 13.835 0 8.342 0S0 3.206 0 8.816v18.235c0 5.61 2.848 8.817 8.342 8.817 5.493 0 8.342-3.207 8.342-8.817v-4.658zM32.503.4 38.2 35.467h-5.646l-.967-6.362h-6.866l-.967 6.362h-5.137L24.314.401zm-4.425 6.211-2.645 17.734h5.391L28.18 6.611h-.101zM58.19 35.467h-5.697c-.305-.902-.509-1.453-.509-4.308v-5.51c0-3.257-1.119-4.459-3.662-4.459h-1.933v14.277h-5.595V.401h8.444c5.798 0 8.29 2.655 8.29 8.066v2.754c0 3.607-1.17 5.911-3.662 7.064 2.798 1.251 3.713 3.856 3.713 7.514v5.41c0 1.704.052 2.955.611 4.258M49.085 5.41h-2.696V16.18h2.187c2.086 0 3.357-.901 3.357-3.707V9.017c0-2.504-.864-3.607-2.848-3.607M75.242.4l5.697 35.067h-5.646l-.966-6.362H67.46l-.966 6.362h-5.138L67.053.401zm-4.425 6.212-2.645 17.734h5.392L70.919 6.611zM86.115.401h-5.646l5.493 35.066h8.342L99.797.401H94.66l-4.222 28.603h-.102zm27.098 0 5.697 35.066h-5.646l-.966-6.362h-6.867l-.967 6.362h-5.137L105.024.401zm-4.425 6.211-2.645 17.734h5.392L108.89 6.611zm25.464 28.855H140V.401h-4.985V21.39h-.102L129.267.4h-7.019v35.067h5.036V10.068h.101z"/></g><defs><clipPath id="a"><path fill="#fff" d="M0 0h140v37.424H0z"/></clipPath></defs></svg>