<svg xmlns="http://www.w3.org/2000/svg" width="152" height="39" fill="none"><g fill="#9c9c9c" clip-path="url(#a)"><path fill-rule="evenodd" d="M23.024 16.595h2.717c2.808 0 4.325 3.242 2.496 5.343l-2.66 3.053a7.26 7.26 0 0 0 2.719 4.584 7.5 7.5 0 0 0 5.16 1.55 7.45 7.45 0 0 0 4.86-2.308 7.22 7.22 0 0 0 1.976-4.941 2.4 2.4 0 0 1 .722-1.718 2.495 2.495 0 0 1 1.744-.71c.653.001 1.28.257 1.743.712.462.455.723 1.072.724 1.716a12 12 0 0 1-2.328 7.094 12.3 12.3 0 0 1-4.336 3.677 12.506 12.506 0 0 1-11.132.104 12.3 12.3 0 0 1-4.405-3.596 12.3 12.3 0 0 1-4.406 3.595 12.5 12.5 0 0 1-5.578 1.254 12.5 12.5 0 0 1-5.553-1.357A12.3 12.3 0 0 1 3.15 30.97a12 12 0 0 1-2.33-7.094 2.4 2.4 0 0 1 .723-1.718c.23-.225.501-.404.8-.526.3-.121.62-.184.945-.183.653 0 1.28.256 1.743.71.462.456.723 1.073.724 1.717a7.22 7.22 0 0 0 1.966 4.952 7.43 7.43 0 0 0 3.504 2.087 7.5 7.5 0 0 0 4.093-.067 7.4 7.4 0 0 0 3.432-2.2 7.24 7.24 0 0 0 1.72-3.658l-2.661-3.053c-1.828-2.1-.312-5.341 2.5-5.341z" clip-rule="evenodd"/><path d="M34.535 10.124c.648 0 1.29-.124 1.888-.368a4.9 4.9 0 0 0 1.6-1.052 4.9 4.9 0 0 0 1.07-1.575 4.79 4.79 0 0 0-1.07-5.292 4.9 4.9 0 0 0-1.6-1.051 5 5 0 0 0-1.888-.369c-.647 0-1.289.125-1.887.369a4.9 4.9 0 0 0-1.6 1.052 4.9 4.9 0 0 0-1.07 1.575 4.8 4.8 0 0 0 0 3.716 4.9 4.9 0 0 0 1.07 1.575c.458.45 1.002.808 1.6 1.052.598.243 1.24.368 1.887.368m-23.023 0c.648 0 1.289-.125 1.887-.368A4.9 4.9 0 0 0 15 8.704c.458-.45.822-.986 1.07-1.575a4.79 4.79 0 0 0-1.07-5.291A4.9 4.9 0 0 0 13.4.786a5 5 0 0 0-1.887-.369c-.648 0-1.289.125-1.887.369a4.9 4.9 0 0 0-1.6 1.051c-.459.451-.823.986-1.07 1.575a4.79 4.79 0 0 0 1.07 5.292c.457.45 1.001.808 1.6 1.052.598.244 1.24.369 1.887.368m67.933-8.52q1.14 0 1.872.64.732.642.732 1.684v23.967q0 1.083-.692 1.723-.69.642-1.83.641-1.14 0-1.832-.64-.691-.642-.692-1.723v-1.003q-.895 1.642-2.605 2.565-1.668.922-3.825.922-2.564 0-4.598-1.283-1.995-1.282-3.134-3.607-1.1-2.365-1.099-5.41 0-3.045 1.1-5.331 1.139-2.285 3.133-3.527Q67.97 9.98 70.573 9.98q2.157 0 3.826.883a6.17 6.17 0 0 1 2.563 2.485v-9.5q0-1.001.651-1.603.692-.64 1.832-.64m-7.529 24.888q2.442 0 3.744-1.643 1.343-1.645 1.343-4.69t-1.343-4.648q-1.302-1.644-3.703-1.644-2.442 0-3.785 1.604-1.343 1.603-1.343 4.609 0 3.045 1.343 4.73 1.343 1.683 3.744 1.682m24.441 3.887q-3.052 0-5.37-1.241-2.28-1.242-3.542-3.568-1.261-2.325-1.262-5.41 0-3.087 1.262-5.37 1.262-2.326 3.54-3.568 2.32-1.242 5.372-1.243 3.052 0 5.331 1.243a8.4 8.4 0 0 1 3.541 3.567q1.262 2.284 1.262 5.37c0 2.06-.421 3.861-1.262 5.412a8.4 8.4 0 0 1-3.541 3.567q-2.28 1.24-5.33 1.241m-.04-3.887q2.482 0 3.784-1.603 1.303-1.603 1.303-4.73 0-3.086-1.303-4.688-1.302-1.644-3.744-1.644t-3.784 1.644q-1.303 1.603-1.303 4.689 0 3.126 1.303 4.729t3.744 1.603m31.221-16.432q1.14 0 1.831.64.692.643.692 1.724v15.831q0 4.609-2.604 6.975-2.605 2.364-7.692 2.364-4.436 0-7.406-1.643-1.506-.882-1.506-2.124 0-.881.407-1.403a1.44 1.44 0 0 1 1.139-.522q.367 0 .896.162.529.2 1.098.44 1.276.535 2.605.922 1.18.32 2.686.32 5.331 0 5.331-5.13V26.05q-.895 1.643-2.604 2.566-1.71.881-3.907.881-2.605 0-4.64-1.201-1.993-1.244-3.133-3.447-1.14-2.205-1.14-5.091t1.099-5.09q1.14-2.245 3.174-3.447 2.035-1.242 4.64-1.243 2.197 0 3.907.922a6.05 6.05 0 0 1 2.604 2.525v-1.042q0-1.04.692-1.684.692-.64 1.831-.64m-7.691 15.55q2.442 0 3.784-1.562 1.384-1.564 1.384-4.29 0-2.764-1.384-4.327-1.342-1.563-3.784-1.563-2.402 0-3.785 1.563t-1.384 4.328q0 2.725 1.384 4.289t3.785 1.563m22.686 4.77q-4.435 0-7.162-1.724-1.302-.761-1.302-2.164 0-.802.447-1.282.448-.522 1.099-.522.692 0 1.913.642 1.302.601 2.36.922 1.1.32 2.767.32 1.71 0 2.646-.561.976-.561.976-1.563 0-.68-.407-1.082-.366-.401-1.383-.721-.977-.36-3.012-.802-3.621-.72-5.209-2.044-1.546-1.322-1.546-3.647 0-1.763 1.058-3.167 1.058-1.442 2.889-2.204 1.872-.801 4.232-.802 1.71 0 3.297.442a9.7 9.7 0 0 1 2.849 1.201q1.302.802 1.302 2.125 0 .802-.448 1.363-.447.52-1.099.521a2.7 2.7 0 0 1-.895-.16 26 26 0 0 1-1.058-.562q-1.18-.6-2.035-.88-.855-.322-2.116-.322-1.506 0-2.401.6-.855.603-.855 1.644 0 1.002.896 1.523t3.459 1.043q2.727.56 4.273 1.282 1.546.721 2.197 1.804.692 1.082.692 2.765 0 2.726-2.319 4.369-2.28 1.643-6.105 1.643"/></g><defs><clipPath id="a"><path fill="#fff" d="M0 0h152v38.409H0z"/></clipPath></defs></svg>