<svg xmlns="http://www.w3.org/2000/svg" width="164" height="38" fill="none"><g clip-path="url(#a)"><path fill="#9c9c9c" d="M2.688 29.616q-1.218 0-1.974-.744Q0 28.127 0 26.928V2.73Q0 1.53.672.869 1.386.206 2.604.207h14.742q2.562 0 2.562 2.15 0 2.11-2.562 2.11H5.334v7.942h11.172q2.562 0 2.562 2.151 0 2.11-2.562 2.11H5.334v10.258q0 1.2-.714 1.944t-1.932.744m24.925 0q-1.134 0-1.89-.62-.714-.662-.714-1.861V2.44q0-1.2.714-1.82.756-.62 1.89-.62t1.89.62.756 1.82v24.695q0 1.2-.756 1.86-.756.622-1.89.621m24.314-5.79q.714 0 1.134.537.462.538.462 1.448 0 1.283-1.554 2.15-1.428.787-3.234 1.283-1.806.455-3.444.455-4.956 0-7.854-2.813t-2.898-7.693q0-3.102 1.26-5.502t3.528-3.722q2.31-1.324 5.208-1.324 2.772 0 4.83 1.2t3.192 3.391 1.134 5.17q0 1.78-1.596 1.78h-12.39q.252 2.853 1.638 4.218 1.386 1.324 4.032 1.324 1.344 0 2.352-.33 1.05-.332 2.352-.91 1.26-.662 1.848-.662M44.66 12.285q-2.142 0-3.444 1.324-1.26 1.323-1.512 3.805h9.492q-.084-2.523-1.26-3.805-1.176-1.324-3.276-1.324m30.723 13.278q.756.744.756 1.696 0 .91-.714 1.654-.714.703-1.68.703-1.05 0-1.806-.868l-5.922-6.453-5.922 6.453q-.798.827-1.806.827-.924 0-1.638-.703-.714-.704-.714-1.613 0-.952.756-1.696l6.132-6.577-5.796-6.205q-.756-.744-.756-1.696 0-.951.714-1.613.714-.703 1.638-.703 1.008 0 1.806.827l5.586 6.04 5.586-6.04q.798-.827 1.806-.827.966 0 1.638.703.714.662.714 1.614 0 .951-.756 1.695l-5.796 6.205zm23.236-11.251q2.562.704 3.948 2.564 1.428 1.862 1.428 4.55 0 3.723-2.73 5.833-2.688 2.11-7.434 2.11H82.995q-1.218 0-1.932-.663-.672-.66-.672-1.861V2.73q0-1.2.672-1.861.714-.663 1.932-.662H93.41q4.62 0 7.224 2.027 2.646 1.985 2.646 5.584 0 2.316-1.26 4.012-1.218 1.696-3.402 2.482zm-12.936-1.82h6.846q5.586 0 5.586-4.095 0-2.069-1.386-3.061-1.386-.993-4.2-.993h-6.846zm7.56 12.74q2.94 0 4.284-1.034t1.344-3.227-1.386-3.267q-1.344-1.076-4.242-1.076h-7.56v8.604zm17.96 4.384q-1.134 0-1.89-.62-.714-.662-.714-1.861V2.44q0-1.2.714-1.82.756-.62 1.89-.62t1.89.62.756 1.82v24.695q0 1.2-.756 1.86-.756.622-1.89.621m17.426.083q-3.15 0-5.544-1.282-2.352-1.282-3.654-3.682-1.302-2.398-1.302-5.584 0-3.184 1.302-5.542 1.302-2.4 3.654-3.682 2.394-1.282 5.544-1.282t5.502 1.282a8.65 8.65 0 0 1 3.654 3.682q1.302 2.358 1.302 5.542 0 3.186-1.302 5.584a8.65 8.65 0 0 1-3.654 3.682q-2.352 1.282-5.502 1.282m-.042-4.012q2.562 0 3.906-1.655t1.344-4.88q0-3.186-1.344-4.84-1.344-1.695-3.864-1.696t-3.906 1.696q-1.344 1.654-1.344 4.84 0 3.225 1.344 4.88t3.864 1.655m32.222-16.96q1.176 0 1.89.663.714.661.714 1.778v16.339q0 4.757-2.688 7.197t-7.938 2.44q-4.578 0-7.644-1.695-1.554-.91-1.554-2.193 0-.91.42-1.447.462-.538 1.176-.538.378 0 .924.165.546.207 1.134.455 1.512.62 2.688.952 1.218.33 2.772.33 5.502 0 5.502-5.294v-2.647q-.924 1.695-2.688 2.647-1.764.91-4.032.91-2.688 0-4.788-1.24-2.058-1.283-3.234-3.558t-1.176-5.253 1.134-5.253q1.176-2.317 3.276-3.558 2.1-1.282 4.788-1.282 2.268 0 4.032.951a6.24 6.24 0 0 1 2.688 2.606v-1.075q0-1.075.714-1.737t1.89-.662m-7.938 16.05q2.52 0 3.906-1.613 1.428-1.614 1.428-4.426 0-2.854-1.428-4.467-1.386-1.614-3.906-1.614-2.478 0-3.906 1.614-1.428 1.612-1.428 4.467 0 2.812 1.428 4.426 1.428 1.613 3.906 1.613"/></g><defs><clipPath id="a"><path fill="#fff" d="M0 0h164v37.424H0z"/></clipPath></defs></svg>