<svg xmlns="http://www.w3.org/2000/svg" width="139" height="50" fill="none"><g clip-path="url(#a)"><path fill="#9c9c9c" d="M24.912 10.62 20.31 38.49h-6.612l1.68-10.063H8.256L6.61 38.49H0l4.639-27.87h6.575L9.242 22.389h7.122l1.974-11.767zm13.561 27.87.22-6.077h-6.1l-1.79 6.077h-6.977l9.388-27.87h12.053l.147 27.87zm-1.497-21.096-2.885 9.832h4.785l.401-9.83zm36.807-6.773L69.18 38.49h-6.612l-4.601-15.25-2.484 15.25H48.87l4.639-27.87h6.794l4.53 14.246 2.373-14.245zm15.425 0q4.785 0 6.83 2.554 1.498 1.936 1.497 4.839 0 1.045-.181 2.206l-1.425 8.632q-.731 4.373-3.58 7.006t-7.38 2.632H74.34l4.64-27.87zm-2.302 6.039h-2.374l-2.593 15.79h3.47q1.716 0 2.666-.966.987-1.007 1.35-3.251l1.061-6.349q.138-.77.146-1.549 0-3.677-3.726-3.675m30.206 21.83H98.775l4.641-27.87h18.337l-1.023 6.04h-11.762l-.84 5.225h9.716l-1.022 6.037h-9.717l-.73 4.53h11.762zm20.865 0H121.32l4.64-27.87h6.575l-3.616 21.832H139zm-64.506 4.96h63.543l-1.985 5.792H71.486zM6.95 0h69.5l-1.986 5.793h-69.5z"/></g><defs><clipPath id="a"><path fill="#fff" d="M0 0h139v49.242H0z"/></clipPath></defs></svg>