<svg xmlns="http://www.w3.org/2000/svg" width="208" height="41" fill="none"><g clip-path="url(#a)"><mask id="b" width="208" height="41" x="0" y="0" maskUnits="userSpaceOnUse" style="mask-type:luminance"><path fill="#fff" d="M0 0h208v40.379H0z"/></mask><g mask="url(#b)"><path fill="#9c9c9c" fill-rule="evenodd" d="M13.935 35.576a.88.88 0 0 1-.685-.34 2.4 2.4 0 0 1-.45-1.012 14 14 0 0 1-.25-1.419q-.105-.921-.106-1.848a109 109 0 0 1 .014-4.072q.027-1.249.026-1.952V9.42q0-1.146.014-1.744t.091-1.353q.045-.563.199-1.106.151-.42.395-.794c.15-.261.368-.477.633-.624q.462-.228.949-.404.627-.23 1.291-.325.861-.124 1.728-.209V1.428l-.45-.443H1.412l-.422.443v1.223q4.008.235 4.482 2.239c.184 1.127.272 2.268.264 3.41v23.76a23.5 23.5 0 0 1-.159 3.697 1.7 1.7 0 0 1-.316.52q-.306.36-.645.69-.269.255-.514.533v.911q20.38 0 25.23.261l1.135-3.774-.712-.495a161 161 0 0 1-15.819 1.172zm25.256-10.879a.7.7 0 0 1-.158.026q-.395 0-.395-.286.002-1.296.198-2.577c.148-.93.395-1.842.738-2.72.33-.89.784-1.73 1.347-2.498a6.3 6.3 0 0 1 2.263-1.845 6.4 6.4 0 0 1 2.865-.64c.716-.04 1.43.105 2.073.42s1.19.789 1.591 1.376a7.07 7.07 0 0 1 1.24 4.111c-.004.268-.09.53-.248.748s-.38.384-.636.476a44 44 0 0 1-4.416 1.484q-3.16.916-6.3 1.9a.8.8 0 0 0-.162.025m15.66 8.12q-4.748 2.837-8.198 2.837a7.6 7.6 0 0 1-4.377-1.276 7.75 7.75 0 0 1-2.755-3.188 9.7 9.7 0 0 1-.883-4.124q17.243-5.283 17.4-5.284a1.95 1.95 0 0 0 1.15-.705 1.9 1.9 0 0 0 .405-1.273 7.33 7.33 0 0 0-.883-3.67 6.4 6.4 0 0 0-2.386-2.433 11.7 11.7 0 0 0-3.256-1.275 17 17 0 0 0-3.785-.404 16.2 16.2 0 0 0-6.642 1.315 12.7 12.7 0 0 0-4.758 3.514 15.9 15.9 0 0 0-2.755 4.945 17.4 17.4 0 0 0-.95 5.738q.001 6.013 3.296 9.006 2.98 2.733 8.41 2.732a13.74 13.74 0 0 0 5.972-1.431 46 46 0 0 0 6.393-3.802l-.577-1.012zM90.36 5.374a7.65 7.65 0 0 0-3.876-4.138 16.6 16.6 0 0 0-6.986-1.249c-1.747-.01-3.487.2-5.18.625a15.9 15.9 0 0 0-4.456 1.874 9.07 9.07 0 0 0-3.203 3.397 10 10 0 0 0-1.187 4.932c0 1.228.302 2.438.883 3.525a9.9 9.9 0 0 0 2.215 2.852q1.469 1.276 3.11 2.329 1.646 1.08 3.402 1.977 1.65.835 3.243 1.771c.88.49 1.706 1.07 2.465 1.73q2.925 2.682 2.926 5.102a6.2 6.2 0 0 1-.535 2.49 6.3 6.3 0 0 1-1.495 2.077 6.7 6.7 0 0 1-2.23 1.49 6.8 6.8 0 0 1-2.647.501 7.05 7.05 0 0 1-3.082-.613 6.95 6.95 0 0 1-2.494-1.886 8.5 8.5 0 0 1-2.148-5.7l-1.027-.365-5.246 5.804a12.23 12.23 0 0 0 4.72 3.995 14 14 0 0 0 6.195 1.394 19.9 19.9 0 0 0 5.774-.887 21.5 21.5 0 0 0 5.326-2.408 12.8 12.8 0 0 0 3.914-3.85 8.94 8.94 0 0 0 1.516-4.96 7.6 7.6 0 0 0-.5-2.77 8.8 8.8 0 0 0-1.292-2.291c-.64-.773-1.38-1.46-2.202-2.043a28 28 0 0 0-2.808-1.837 97 97 0 0 0-3.532-1.887 46 46 0 0 1-2.452-1.262 29 29 0 0 1-2.218-1.412 11 11 0 0 1-2.002-1.734 8 8 0 0 1-1.266-2.03 6.1 6.1 0 0 1-.527-2.512 5.2 5.2 0 0 1 .376-2.067 5.3 5.3 0 0 1 1.164-1.76 5.4 5.4 0 0 1 1.87-1.2 5.5 5.5 0 0 1 2.203-.36c.931-.04 1.86.124 2.719.48.859.355 1.628.893 2.251 1.575a9.04 9.04 0 0 1 2.254 4.972l.923.285zm25.638 9.982a5.3 5.3 0 0 0-1.977-1.952 9.6 9.6 0 0 0-2.61-1.002 13.6 13.6 0 0 0-2.992-.312 15.8 15.8 0 0 0-5.629.95 12.3 12.3 0 0 0-4.165 2.512 13.6 13.6 0 0 0-2.742 3.681 17.3 17.3 0 0 0-1.569 4.36 22.4 22.4 0 0 0-.474 4.658 13.5 13.5 0 0 0 .566 3.928c.37 1.234.945 2.399 1.7 3.449a7.8 7.8 0 0 0 3.099 2.498c1.418.639 2.963.955 4.521.924q7.409 0 13.92-6.428l-.527-.755-.659-.156q-4.824 3.67-8.911 3.67a6.4 6.4 0 0 1-2.939-.664A5.9 5.9 0 0 1 102.511 33a10.4 10.4 0 0 1-1.332-2.42 13 13 0 0 1-.751-2.667c-.14-.861-.21-1.732-.211-2.603a20 20 0 0 1 .29-3.305c.207-1.217.516-2.413.923-3.58a7.46 7.46 0 0 1 1.872-3.019c.379-.378.83-.677 1.328-.88a4.1 4.1 0 0 1 1.572-.304c.72-.039 1.438.12 2.071.461.633.34 1.158.848 1.514 1.466a9 9 0 0 1 1.16 4.737l.923.364 4.983-2.914a6.5 6.5 0 0 0-.855-2.98m9.663 7.743c.134-1.023.368-2.03.699-3.006.303-.95.733-1.856 1.278-2.694a6.1 6.1 0 0 1 2.044-1.887 5.7 5.7 0 0 1 2.913-.741 5.9 5.9 0 0 1 3.15.82 5.44 5.44 0 0 1 2.043 2.238c.477.952.822 1.962 1.027 3.005a17.4 17.4 0 0 1 .317 3.41q0 1.562-.027 2.602a31 31 0 0 1-.184 2.5 15 15 0 0 1-.435 2.42q-.311 1.05-.804 2.03a5.1 5.1 0 0 1-1.279 1.691 6.4 6.4 0 0 1-1.872 1.041 7.4 7.4 0 0 1-2.57.417 4.73 4.73 0 0 1-2.703-.808 6 6 0 0 1-1.884-1.99 12.2 12.2 0 0 1-1.134-2.72 18 18 0 0 1-.607-2.85 21 21 0 0 1-.158-2.512q0-1.489.186-2.966m-3.269 13.456q2.873 2.576 9.122 2.576a19.2 19.2 0 0 0 4.574-.521 13.6 13.6 0 0 0 3.978-1.678 11.7 11.7 0 0 0 3.177-2.903 13.5 13.5 0 0 0 2.083-4.32c.532-1.88.789-3.825.765-5.777a10.7 10.7 0 0 0-.869-4.582 10.85 10.85 0 0 0-2.743-3.8q-3.297-2.912-9.57-2.913-6.274 0-10.335 3.826a12.8 12.8 0 0 0-3.077 4.4 12.6 12.6 0 0 0-.983 5.255q0 6.976 3.875 10.437zm41.258-20.613q2.109 0 3.006.833c.557.67.909 1.483 1.014 2.344.221 1.014.358 2.046.409 3.083q.053 1.367.053 3.527-.002 2.805-.039 5.609-.013.845.012 1.991.007.856.106 1.704.08.561.211 1.223c.061.37.186.726.369 1.054q.238.393.578.704a4.12 4.12 0 0 0 2.899 1.04q1.978 0 4.535-1.977a49 49 0 0 0 4.06-3.723l-.606-.886h-.633a6.5 6.5 0 0 1-3.611 1.38 2.1 2.1 0 0 1-1.53-.547 2 2 0 0 1-.462-.507c-.145-.34-.238-.7-.276-1.067a15 15 0 0 1-.132-2.251q0-.86.092-2.772.073-1.36.093-2.72v-1.562q.026-2.524-.013-3.501a24 24 0 0 0-.304-2.654 4.8 4.8 0 0 0-.817-2.317 5.5 5.5 0 0 0-1.635-1.196 5.8 5.8 0 0 0-2.689-.56q-4.64 0-10.756 3.748l-.633-.235a4.9 4.9 0 0 0-.909-2.667q-.779-1.004-2.676-1.002c-.758.01-1.51.136-2.228.377-.835.276-1.632.652-2.374 1.119q-1.2.742-2.083 1.38-.883.636-2.043 1.548l.975 1.275q.269-.171.541-.338.46-.285.804-.469l.817-.429q.425-.228.884-.38c.233-.079.477-.123.724-.13.305-.007.606.069.87.222.268.174.47.43.578.728q.198.473.342.963.162.662.185 1.34.054.888.064 1.432.012.545.013 1.64v.443q0 2.55-.395 15.615l.659.364 5.932-1.692q-.264-1.118-.396-7.052a505 505 0 0 1-.128-11.608q4.587-2.446 6.538-2.446zm25.573 8.873a.7.7 0 0 1-.158.028q-.394 0-.396-.286.001-1.296.199-2.577c.148-.93.395-1.842.737-2.72.331-.89.783-1.73 1.345-2.499a6.3 6.3 0 0 1 2.263-1.846 6.4 6.4 0 0 1 2.865-.64 4.2 4.2 0 0 1 2.073.421c.643.315 1.191.79 1.591 1.376a7.06 7.06 0 0 1 1.239 4.111c-.004.268-.09.529-.248.747a1.34 1.34 0 0 1-.635.477 44 44 0 0 1-4.415 1.484q-3.161.916-6.301 1.9a1 1 0 0 0-.158.025zm15.66 8.121q-4.748 2.838-8.199 2.837a7.6 7.6 0 0 1-4.377-1.275 7.75 7.75 0 0 1-2.754-3.188 9.7 9.7 0 0 1-.884-4.126q17.242-5.282 17.401-5.282a1.96 1.96 0 0 0 1.15-.706 1.9 1.9 0 0 0 .405-1.273 7.34 7.34 0 0 0-.883-3.67 6.4 6.4 0 0 0-2.386-2.433 11.7 11.7 0 0 0-3.256-1.275 17 17 0 0 0-3.786-.404 16.2 16.2 0 0 0-6.64 1.315 12.7 12.7 0 0 0-4.758 3.514 15.9 15.9 0 0 0-2.755 4.945 17.4 17.4 0 0 0-.949 5.739q0 6.011 3.295 9.005 2.979 2.733 8.41 2.732a13.74 13.74 0 0 0 5.972-1.431 46.3 46.3 0 0 0 6.393-3.8l-.577-1.014z" clip-rule="evenodd"/></g></g><defs><clipPath id="a"><path fill="#fff" d="M0 0h208v40.379H0z"/></clipPath></defs></svg>