<svg xmlns="http://www.w3.org/2000/svg" width="148" height="36" fill="none"><g clip-path="url(#a)"><path fill="#9c9c9c" d="M48.624 34.982V0h-8.976L20.88 26.993l-3.168-3.924c5.664-.85 8.832-5.767 8.832-11.014 0-5.011-2.784-9.219-6.528-10.826C18.144.425 15.36 0 11.664 0H0v34.982h8.688V23.684h.096l8.208 11.298h9.168l3.12-5.058h10.272v5.058zM8.688 17.586V7.846h3.456c3.408 0 5.712 1.702 5.712 4.728 0 3.214-2.16 5.01-5.76 5.01zm30.864 5.247H33.6l5.856-9.691h.096zM85.03 34.982V0h-8.688l.384 22.124L62.902 0h-7.824v34.982h8.688l-.24-21.367 13.632 21.367zm26.198 0v-7.847h-11.04V21.13h10.704v-7.847h-10.704V7.847h11.04V0H91.5v34.982zm36.062 0-12.528-17.538L146.522 0h-9.504l-10.032 15.742h-.096V0h-9.072v34.982h9.072V19.855h.096l9.696 15.127z"/></g><defs><clipPath id="a"><path fill="#fff" d="M0 0h148v35.455H0z"/></clipPath></defs></svg>