<svg xmlns="http://www.w3.org/2000/svg" width="200" height="49" fill="none"><g fill="#9c9c9c" clip-path="url(#a)"><path d="M54.381 43.347q-4.98 0-7.636-1.678-2.61-1.726-2.609-5.037 0-1.678 1.138-2.751 1.186-1.12 3.036-1.12 1.09.047 1.66.56.57.467.57.887 0 .046-.475.326-.474.28-.854.839-.38.56-.38 1.54 0 2.19 1.33 3.404 1.374 1.165 4.22 1.165 1.945 0 3.416-.746 1.47-.745 2.23-1.959.805-1.259.805-2.611 0-1.679-.996-2.891a7.8 7.8 0 0 0-2.37-2.005q-1.425-.84-3.89-1.913-2.846-1.258-4.6-2.284a9.8 9.8 0 0 1-2.99-2.705q-1.233-1.724-1.233-4.244 0-4.056 2.798-6.061 2.847-2.007 7.447-2.006 3.605 0 6.261 1.492 2.704 1.493 2.704 4.383 0 1.68-1.186 2.799-1.139 1.072-2.988 1.072-1.091-.047-1.66-.513-.57-.512-.57-.932 0-.047.617-.327a3 3 0 0 0 1.138-.84q.522-.559.522-1.538 0-1.725-1.375-2.705-1.328-.98-3.416-.979-2.893 0-4.41 1.352-1.47 1.306-1.47 3.265 0 1.631.9 2.75.9 1.073 2.893 2.146a62 62 0 0 0 3.51 1.679q3.036 1.351 4.791 2.472a9.54 9.54 0 0 1 2.988 2.938q1.233 1.818 1.234 4.522 0 2.333-1.518 4.245-1.47 1.865-4.032 2.937-2.514 1.072-5.55 1.072m24.013-.372q-3.225 0-5.123-1.913-1.897-1.911-1.897-5.036v-8.628q0-1.211-.095-1.771-.045-.56-.57-.98-.52-.419-1.754-.419-.57 0-.854-.14-.285-.187-.284-.792 0-.28.19-.512.189-.281.57-.328 2.988-.42 5.121-1.213.664-.232 1.091-.28h.142q.76 0 .76.887v14.13q0 2.145 1.375 3.31a4.9 4.9 0 0 0 3.178 1.12q2.228 0 3.794-1.073t2.087-2.145v-9.793q.001-1.212-.094-1.772-.048-.56-.57-.98t-1.755-.419q-.57 0-.853-.14-.285-.187-.285-.792 0-.28.19-.512.189-.281.57-.328 2.988-.42 5.122-1.213.663-.232 1.09-.28h.143q.76 0 .76.887v16.136q0 2.751 3.746 2.751.806 0 .806.887 0 .652-.806.791l-7.637.514q-.331 0-.38-.233-.046-.186-.047-.7v-2.612h-.094a57 57 0 0 1-2.23 1.958q-.853.653-2.23 1.12-1.328.512-3.177.512m19.196-.42a.73.73 0 0 1-.57-.28 1.14 1.14 0 0 1-.19-.652q.048-.607.285-.7.239-.14.854-.14 1.233 0 1.755-.42t.569-.979q.095-.56.095-1.773V26.933q0-1.212-.095-1.773-.047-.56-.569-.978-.522-.42-1.755-.42-.57 0-.853-.14-.285-.187-.285-.793a.8.8 0 0 1 .19-.512q.189-.28.57-.327 3.082-.466 5.074-1.213.806-.233 1.091-.28h.142q.759 0 .759.887v2.89h.142q1.66-1.632 3.368-2.564 1.708-.98 3.083-.979 1.566 0 2.467 1.165.948 1.12.948 2.612 0 1.306-.806 2.331-.807 1.026-2.229 1.026a2.5 2.5 0 0 1-1.186-.28q-.474-.28-.522-.465.048-.094.474-.56.427-.512.427-1.166 0-.84-.474-1.352-.427-.514-1.186-.513-.806 0-2.039.793-1.234.746-2.419 1.911v11.378q0 1.213.094 1.773.096.56.617.979.522.42 1.755.42h.285q.379 0 .569.14t.237.699q0 .374-.19.653-.19.28-.569.28a99 99 0 0 0-4.98-.14q-2.134.001-4.933.14m73.667.42q-3.225 0-5.739-1.493-2.514-1.538-3.937-4.01a10.94 10.94 0 0 1-1.375-5.317q0-3.496 1.66-6.062 1.66-2.61 4.221-3.963 2.562-1.4 5.17-1.399 3.226 0 5.74 1.538a10.4 10.4 0 0 1 3.889 4.01 10.4 10.4 0 0 1 1.423 5.27q0 3.498-1.707 6.11-1.66 2.564-4.222 3.963-2.56 1.353-5.123 1.353m0-1.726q3.226 0 4.696-2.705 1.518-2.703 1.518-6.994 0-4.01-1.565-6.53-1.518-2.564-4.649-2.564-3.272 0-4.743 2.659-1.47 2.657-1.47 6.948 0 4.01 1.518 6.62 1.518 2.567 4.695 2.566m23.004 1.958q-2.325 0-3.985-1.678-1.66-1.68-1.66-4.803v-13.71l-2.751.093a.59.59 0 0 1-.474-.233 1.06 1.06 0 0 1-.19-.607q0-.42.142-.699.19-.327.522-.373 1.66-.326 2.562-1.025.948-.748 1.375-1.586.428-.885 1.044-2.66.237-.605 1.043-.605.332 0 .664.187.332.14.332.466l-.332 5.316 5.55-.326h.095q.616 0 .616.886 0 .513-.19.979-.142.42-.379.42l-5.312-.14v14.176q0 1.54.616 2.565.664 1.026 2.135 1.026t2.608-.513q.617-.233.759-.233.333 0 .522.28.19.233.38.652.051.112.047.234 0 .186-.285.42-1.375.886-2.608 1.165-1.187.326-2.846.326m-76.664-.932q.19.28.569.28a96 96 0 0 1 4.933-.14q3.178 0 5.929.14a.61.61 0 0 0 .522-.28q.189-.28.189-.653-.047-.56-.237-.7-.142-.139-.569-.14h-.285q-1.565 0-2.229-.233-.664-.232-.901-.839-.237-.653-.237-2.098V23.108h5.028a.73.73 0 0 0 .569-.28.98.98 0 0 0 .237-.653q-.048-.56-.285-.7-.19-.186-.616-.187h-4.933v-2.797q0-2.238.189-3.917a7.5 7.5 0 0 1 1.091-3.171q.901-1.445 2.799-1.445.218 0 .422.024a7.8 7.8 0 0 1 .104-1.56l-.194-.004q-4.174.093-6.498 3.125-2.277 2.985-2.277 7.788v1.958h-2.846q-.617 0-.854.14-.237.094-.284.746 0 .374.189.653.238.28.617.28h3.178v14.503q0 1.26-.095 1.82-.047.512-.569.932t-1.755.42q-.617 0-.854.14-.189.092-.237.699 0 .374.19.653"/><path fill-rule="evenodd" d="M142.952 9.716c0 .68-.137 1.355-.402 1.983a5.2 5.2 0 0 1-1.143 1.682 5.3 5.3 0 0 1-1.71 1.122 5.3 5.3 0 0 1-2.015.393 5.3 5.3 0 0 1-3.724-1.516 5.15 5.15 0 0 1-1.546-3.664 5.1 5.1 0 0 1 .403-1.985c.265-.629.653-1.2 1.142-1.682a5.3 5.3 0 0 1 1.71-1.122 5.3 5.3 0 0 1 2.015-.394c.692 0 1.377.133 2.016.393s1.22.642 1.709 1.123a5.2 5.2 0 0 1 1.143 1.682c.265.63.402 1.303.402 1.985m-5.27 2.59a2.67 2.67 0 0 0 1.863-.758c.244-.24.438-.526.571-.84a2.55 2.55 0 0 0 0-1.985 2.6 2.6 0 0 0-.571-.84 2.665 2.665 0 0 0-1.863-.758c-.698 0-1.367.272-1.862.757a2.57 2.57 0 0 0-.773 1.833c.001.687.279 1.346.773 1.832a2.66 2.66 0 0 0 1.862.759m-2.31 4.844v24.986q0 .418.238.652.237.28.664.28.426 0 .711-.373.285-.326.522-.98t.427-1.026h.237q3.083 2.286 7.304 2.285 2.846 0 5.36-1.492a11 11 0 0 0 3.985-4.058q1.517-2.61 1.517-5.735 0-3.17-1.328-5.643-1.28-2.518-3.557-3.916-2.277-1.4-5.075-1.399-1.708-.001-3.463.7a8.9 8.9 0 0 0-3.083 2.004h-.142v-6.2a8.1 8.1 0 0 1-4.317-.085m14.325 21.674q-1.755 2.565-4.648 2.565-1.518 0-2.704-.653-1.139-.653-1.85-1.539-.664-.934-.806-1.678v-12.31q2.039-2.147 5.028-2.147 3.367 0 5.075 2.612 1.707 2.565 1.707 6.202 0 4.337-1.802 6.948M12.7.36a2 2 0 0 1 2.298 0c8.56 6.012 12.44 13.218 12.685 23.558.113 4.937-.37 9.458-1.84 13.362-1.51 3.908-4.194 7.518-8.144 10.567a2 2 0 0 1-1.76.335c-1.21-.342-1.416-1.752-2.09-2.63-.674.878-.878 2.287-2.09 2.629A2.01 2.01 0 0 1 10 47.847c-3.95-3.048-6.634-6.658-8.143-10.566C.387 33.377-.097 28.856.017 23.92.26 13.579 4.14 6.372 12.7.361m4.426 43.033c2.472-2.235 3.962-4.673 5.014-7.477 1.325-3.427 1.707-7.215 1.592-11.907-.19-8.063-2.11-13.31-7.923-18.18v14.248c2.273.575 3.293 2.768 3.293 5.18 0 2.415-1.02 4.608-3.293 5.183v11.657s1.056.959 1.317 1.296m-6.588 0c-2.472-2.235-3.927-4.673-4.98-7.477-1.324-3.427-1.706-7.215-1.59-11.907.19-8.047 2.1-13.316 7.888-18.18v14.248c-2.273.575-3.294 2.768-3.294 5.18 0 2.415 1.02 4.608 3.294 5.183v11.657s-1.066.97-1.318 1.296m3.294-20.726c-.698 0-1.368.272-1.862.758a2.57 2.57 0 0 0-.773 1.832c0 1.432 1.18 2.592 2.635 2.592.698 0 1.368-.273 1.862-.758a2.57 2.57 0 0 0 .773-1.833c0-1.43-1.18-2.59-2.635-2.59" clip-rule="evenodd"/></g><defs><clipPath id="a"><path fill="#fff" d="M0 0h200v48.258H0z"/></clipPath></defs></svg>