<svg xmlns="http://www.w3.org/2000/svg" width="196" height="34" fill="none"><path fill="#9c9c9c" d="M21.644 32.456a7.1 7.1 0 0 1-3.38-.758 6.84 6.84 0 0 1-2.574-2.255 11.73 11.73 0 0 1-7.47 3.013c-4.987 0-7.69-3.412-6.777-8.303.694-3.677 3.799-7.362 4.667-10.32-1.68-.994-4.174-1.685-5.343.344L0 13.725c.612-2.224 2.091-3.703 4.228-3.703s3.717 1.23 5.754.097h1.625c-.867 4.43-3.059 7.974-4.228 14.176-.712 3.802.612 5.53 2.85 5.53a6.82 6.82 0 0 0 4.273-2.226 17.5 17.5 0 0 1-1.324-6.813c0-5.387 2.548-11.065 6.822-11.065 2.192 0 3.817 1.479 3.817 4.988 0 3.508-2.191 8.94-4.986 12.35.151.812.59 1.548 1.24 2.08.65.533 1.471.828 2.322.836 4.073 0 6.922-5.929 6.922-11.413 0-5.483-2.447-5.236-2.237-7.087a1.74 1.74 0 0 1 .627-1.204 1.86 1.86 0 0 1 1.318-.426c1.27 0 2.94 1.559 2.94 7.885 0 8.062-4.419 14.726-10.319 14.726m-.922-19.953c-1.27 0-2.494 4.545-2.649 9.24-.06 1.005-.04 2.012.055 3.013a23.16 23.16 0 0 0 3.415-10.127c-.009-1.595-.31-2.127-.822-2.127zm19.607 19.749a3.8 3.8 0 0 1-1.577-.178 3.7 3.7 0 0 1-1.35-.81 3.5 3.5 0 0 1-.868-1.29 3.45 3.45 0 0 1-.224-1.524c0-2.17 2.905-12.989 2.905-14.77 0-.84-.201-1.337-.968-1.337a4.47 4.47 0 0 0-2.293 1.09V11.9a7.6 7.6 0 0 1 4.84-1.922 3.8 3.8 0 0 1 1.583.197c.506.177.966.457 1.349.825.382.366.678.81.866 1.3a3.5 3.5 0 0 1 .22 1.531c0 2.17-2.903 12.945-2.903 14.717 0 .842.2 1.338.968 1.338a4.83 4.83 0 0 0 2.292-1.037v1.48a7.5 7.5 0 0 1-4.84 1.923M43.89.984a2.8 2.8 0 0 1 1.161.21c.366.152.695.379.961.665.267.285.467.624.585.994s.15.76.097 1.144a3.37 3.37 0 0 1-1.121 2.125c-.63.555-1.44.87-2.285.887a2.8 2.8 0 0 1-1.16-.21 2.7 2.7 0 0 1-.962-.665 2.583 2.583 0 0 1-.682-2.137 3.37 3.37 0 0 1 1.121-2.126c.63-.555 1.44-.87 2.285-.887m11.306 26.625c-.255 1.338-.1 2.268.868 2.268a4.63 4.63 0 0 0 2.292-1.037l.091 1.488a7.6 7.6 0 0 1-4.84 1.924c-3.16 0-4.383-2.224-3.917-4.988l3.105-17.145c1.032-5.724.675-6.477-2.485-6.477l.201-1.382 9.525-1.223zm26.786-.045c-.256 1.338-.156 2.322.867 2.322a4.9 4.9 0 0 0 2.293-1.09v1.532a7.43 7.43 0 0 1-4.84 1.924 3.73 3.73 0 0 1-2.531-.755 3.52 3.52 0 0 1-1.342-2.213 8.3 8.3 0 0 1-2.877 2.335 8.5 8.5 0 0 1-3.643.872c-6.055 0-8.603-5.183-7.434-11.412 1.169-6.228 6.62-11.314 12.785-11.314a8.8 8.8 0 0 1 4.192.965l.155-.788c1.206-6.096.649-6.3-2.511-6.3l.155-1.382 9.57-1.223-4.84 26.528zm-6.567-15.566c-3.516 0-5.853 4.048-6.776 9.037-.968 5.236-.356 8.86 2.95 8.86 2.237 0 4.785-2.659 5.552-6.716l1.882-10.277a6.6 6.6 0 0 0-3.608-.904m22.658 20.501c-7.078 0-9.014-4.944-8.146-9.684l2.31-12.696c1.069-5.731.713-6.521-2.447-6.521l.2-1.382 9.553-1.179-1.936 10.766a8.7 8.7 0 0 1 5.343-2.03c6.164 0 9.059 5.087 7.945 11.315-1.114 6.229-6.785 11.411-12.822 11.411m3.306-20.377a4.97 4.97 0 0 0-2.845.959c-.817.6-1.42 1.439-1.721 2.398l-1.425 7.974c-.868 4.74.868 6.672 3.06 6.672 3.205 0 5.196-3.455 6.264-9.135.95-5.086.083-8.842-3.342-8.842zm19.169 11.837c0 3.801 1.881 5.83 5.479 5.83 1.827 0 4.484-1.231 6.165-2.862l.712 1.577a13.2 13.2 0 0 1-4.267 2.923 13.5 13.5 0 0 1-5.103 1.08c-5.342 0-8.959-3.853-8.959-9.09 0-7.752 6.621-13.634 12.987-13.634 3.872 0 6.054 2.073 6.054 4.492-.045 3.756-3.716 7.974-13.068 9.684m6.566-11.908c-2.904 0-5.698 4.102-6.466 9.976 5.854-1.383 8.347-5.236 8.402-7.708-.009-1.382-.676-2.268-1.945-2.268zm27.279 20.2a3.73 3.73 0 0 1-2.531-.753 3.53 3.53 0 0 1-1.341-2.214 7.96 7.96 0 0 1-2.806 2.337 8.2 8.2 0 0 1-3.587.87c-5.954 0-8.502-5.183-7.306-11.412 1.196-6.228 6.557-11.306 12.74-11.306a9.9 9.9 0 0 1 3.817.745h5.808l-3.114 17.046c-.256 1.338-.155 2.322.868 2.322a4.9 4.9 0 0 0 2.292-1.09v1.532a7.43 7.43 0 0 1-4.84 1.924m-4.685-20.253c-3.416 0-5.808 4.048-6.722 9.037-.968 5.236-.301 8.86 2.74 8.86 2.338 0 4.84-2.764 5.553-6.716l1.881-10.277a6.04 6.04 0 0 0-3.443-.904zm27.297 3.605c-1.379 0-1.736-1.036-2.137-2.126a2.43 2.43 0 0 0-.929-1.375 2.56 2.56 0 0 0-1.619-.486 3.1 3.1 0 0 0-2.083.664 2.92 2.92 0 0 0-1.077 1.853c-.155 1.338.867 2.472 2.803 4.102l2.594 2.073a6.5 6.5 0 0 1 2.164 2.757 6.3 6.3 0 0 1 .384 3.445c-.658 3.703-3.817 5.98-8.046 5.98-5.096 0-8.347-2.915-7.991-4.89.083-.52.353-.995.763-1.338.41-.345.933-.536 1.475-.54 1.324 0 1.826.983 2.237 2.267.264.74.771 1.371 1.443 1.8.674.43 1.473.632 2.274.575a3.25 3.25 0 0 0 2.184-.707 3.07 3.07 0 0 0 1.122-1.95c.201-1.773-.913-2.862-3.004-4.697l-2.548-2.17a6.2 6.2 0 0 1-2.028-2.568 6.03 6.03 0 0 1-.42-3.209c.457-2.374 2.74-5.316 7.991-5.316 4.073 0 6.621 2.224 6.393 4.005-.026.49-.24.954-.6 1.295-.36.342-.841.541-1.345.556m18.639-3.1h-4.941l-2.392 13.13c-.512 2.72-.101 3.952 1.424 3.952.813 0 2.091-.443 3.918-2.268l.1 1.922a8.9 8.9 0 0 1-3.015 2.246 9.1 9.1 0 0 1-3.706.82c-3.461 0-5.196-2.374-4.374-6.77l2.392-13.032h-3.863l.302-2.03h3.899l1.023-5.874h5.699l-1.069 5.874h4.941z"/></svg>