<svg xmlns="http://www.w3.org/2000/svg" width="32" height="32" fill="none"><path fill="url(#a)" d="M31.33 8.248A4.02 4.02 0 0 0 28.502 5.4C26.007 4.727 16 4.727 16 4.727s-10.007 0-12.503.673A4.02 4.02 0 0 0 .67 8.248C0 10.76 0 16 0 16s0 5.24.67 7.752A4.02 4.02 0 0 0 3.498 26.6c2.494.673 12.501.673 12.501.673s10.007 0 12.503-.673a4.02 4.02 0 0 0 2.829-2.848C32 21.24 32 16 32 16s0-5.24-.67-7.752m-18.603 12.51v-9.515L21.09 16z"/><defs><linearGradient id="a" x1="0" x2="32" y1="16" y2="16" gradientUnits="userSpaceOnUse"><stop stop-color="#ffbf00"/><stop offset="1" stop-color="#f2a50c"/></linearGradient></defs></svg>