<svg xmlns="http://www.w3.org/2000/svg" width="20" height="20" fill="none"><path fill="url(#a)" d="M16.667 3.333H3.333c-.916 0-1.658.75-1.658 1.667l-.008 10c0 .917.75 1.667 1.666 1.667h13.334c.916 0 1.666-.75 1.666-1.667V5c0-.917-.75-1.667-1.666-1.667m-.334 3.542-5.891 3.684a.84.84 0 0 1-.884 0L3.667 6.875a.708.708 0 1 1 .75-1.2L10 9.167l5.583-3.492a.708.708 0 1 1 .75 1.2"/><defs><linearGradient id="a" x1="1.667" x2="18.333" y1="10" y2="10" gradientUnits="userSpaceOnUse"><stop stop-color="#ffbf00"/><stop offset="1" stop-color="#f2a50c"/></linearGradient></defs></svg>