<svg xmlns="http://www.w3.org/2000/svg" width="20" height="20" fill="none"><path fill="url(#a)" d="M10 1.667c-4.583 0-8.333 3.75-8.333 8.333s3.75 8.333 8.333 8.333 8.333-3.75 8.333-8.333S14.583 1.667 10 1.667m2.958 11.5-3.4-2.092a.82.82 0 0 1-.4-.708V6.458a.64.64 0 0 1 .634-.625.63.63 0 0 1 .625.625v3.708l3.2 1.925c.3.184.4.575.216.876a.64.64 0 0 1-.875.2"/><defs><linearGradient id="a" x1="1.667" x2="18.333" y1="10" y2="10" gradientUnits="userSpaceOnUse"><stop stop-color="#ffbf00"/><stop offset="1" stop-color="#f2a50c"/></linearGradient></defs></svg>