<svg xmlns="http://www.w3.org/2000/svg" width="20" height="20" fill="none"><path fill="url(#a)" d="m16.025 12.717-2.117-.242a1.66 1.66 0 0 0-1.367.475l-1.533 1.533a12.54 12.54 0 0 1-5.491-5.491l1.54-1.542c.36-.358.535-.858.476-1.367l-.241-2.1a1.67 1.67 0 0 0-1.66-1.475h-1.44c-.942 0-1.725.784-1.667 1.725.442 7.117 6.133 12.8 13.242 13.242.94.058 1.724-.725 1.724-1.667v-1.441a1.65 1.65 0 0 0-1.466-1.65"/><defs><linearGradient id="a" x1="2.521" x2="17.491" y1="9.993" y2="9.993" gradientUnits="userSpaceOnUse"><stop stop-color="#ffbf00"/><stop offset="1" stop-color="#f2a50c"/></linearGradient></defs></svg>