<svg xmlns="http://www.w3.org/2000/svg" width="32" height="32" fill="none"><path fill="url(#a)" d="M25.946 13.333a1.33 1.33 0 0 0-.093 1.334c.33.772.564 1.582.693 2.413a10.67 10.67 0 0 1-.92 6.307 1.33 1.33 0 0 1-1.186.706H7.573a1.33 1.33 0 0 1-1.187-.72A10.667 10.667 0 0 1 17.333 8.08c.968.114 1.916.365 2.813.747a1.33 1.33 0 0 0 1.334-.094 1.333 1.333 0 0 0-.227-2.346A13.333 13.333 0 0 0 4.466 25.333a2.67 2.67 0 0 0 2.294 1.334h18.466a2.67 2.67 0 0 0 2.32-1.334 13.33 13.33 0 0 0 .734-11.853 1.334 1.334 0 0 0-2.334-.147"/><path fill="url(#b)" d="M14.12 16.787a2.668 2.668 0 0 0 3.774 3.773L25.44 9.24z"/><defs><linearGradient id="a" x1="2.665" x2="29.331" y1="15.987" y2="15.987" gradientUnits="userSpaceOnUse"><stop stop-color="#ffbf00"/><stop offset="1" stop-color="#f2a50c"/></linearGradient><linearGradient id="b" x1="13.339" x2="25.44" y1="15.291" y2="15.291" gradientUnits="userSpaceOnUse"><stop stop-color="#ffbf00"/><stop offset="1" stop-color="#f2a50c"/></linearGradient></defs></svg>